<mxfile host="Electron" agent="Mozilla/5.0 (X11; Linux x86_64) AppleWebKit/537.36 (KHTML, like Gecko) draw.io/26.0.4 Chrome/128.0.6613.186 Electron/32.2.5 Safari/537.36" version="26.0.4">
  <diagram name="Page-1" id="2VU67tIw9yh0kLZgefV0">
    <mxGraphModel dx="928" dy="998" grid="1" gridSize="10" guides="1" tooltips="1" connect="1" arrows="1" fold="1" page="1" pageScale="1" pageWidth="850" pageHeight="1100" math="0" shadow="0">
      <root>
        <mxCell id="0" />
        <mxCell id="1" parent="0" />
        <mxCell id="CR2SDrkhxNH643ZOb_z3-17" style="edgeStyle=orthogonalEdgeStyle;rounded=0;orthogonalLoop=1;jettySize=auto;html=1;" edge="1" parent="1" source="CR2SDrkhxNH643ZOb_z3-9" target="CR2SDrkhxNH643ZOb_z3-8">
          <mxGeometry relative="1" as="geometry" />
        </mxCell>
        <mxCell id="CR2SDrkhxNH643ZOb_z3-9" value="AWS Transfer Damily" style="fillColor=none;strokeColor=#5A6C86;dashed=1;verticalAlign=top;fontStyle=1;fontColor=#5A6C86;whiteSpace=wrap;html=1;" vertex="1" parent="1">
          <mxGeometry x="370" y="314.5" width="160" height="369" as="geometry" />
        </mxCell>
        <mxCell id="CR2SDrkhxNH643ZOb_z3-11" style="edgeStyle=orthogonalEdgeStyle;rounded=0;orthogonalLoop=1;jettySize=auto;html=1;" edge="1" parent="1" source="CR2SDrkhxNH643ZOb_z3-1" target="CR2SDrkhxNH643ZOb_z3-2">
          <mxGeometry relative="1" as="geometry" />
        </mxCell>
        <mxCell id="CR2SDrkhxNH643ZOb_z3-1" value="" style="sketch=0;outlineConnect=0;fontColor=#232F3E;gradientColor=none;fillColor=#232F3D;strokeColor=none;dashed=0;verticalLabelPosition=bottom;verticalAlign=top;align=center;html=1;fontSize=12;fontStyle=0;aspect=fixed;pointerEvents=1;shape=mxgraph.aws4.users;" vertex="1" parent="1">
          <mxGeometry x="60" y="552" width="78" height="78" as="geometry" />
        </mxCell>
        <mxCell id="CR2SDrkhxNH643ZOb_z3-24" style="edgeStyle=orthogonalEdgeStyle;rounded=0;orthogonalLoop=1;jettySize=auto;html=1;entryX=0;entryY=0.75;entryDx=0;entryDy=0;" edge="1" parent="1" source="CR2SDrkhxNH643ZOb_z3-2" target="CR2SDrkhxNH643ZOb_z3-9">
          <mxGeometry relative="1" as="geometry" />
        </mxCell>
        <mxCell id="CR2SDrkhxNH643ZOb_z3-2" value="" style="sketch=0;points=[[0,0,0],[0.25,0,0],[0.5,0,0],[0.75,0,0],[1,0,0],[0,1,0],[0.25,1,0],[0.5,1,0],[0.75,1,0],[1,1,0],[0,0.25,0],[0,0.5,0],[0,0.75,0],[1,0.25,0],[1,0.5,0],[1,0.75,0]];outlineConnect=0;fontColor=#232F3E;fillColor=#8C4FFF;strokeColor=#ffffff;dashed=0;verticalLabelPosition=bottom;verticalAlign=top;align=center;html=1;fontSize=12;fontStyle=0;aspect=fixed;shape=mxgraph.aws4.resourceIcon;resIcon=mxgraph.aws4.route_53;" vertex="1" parent="1">
          <mxGeometry x="220" y="552" width="78" height="78" as="geometry" />
        </mxCell>
        <mxCell id="CR2SDrkhxNH643ZOb_z3-3" value="AWS Transfer for SFTP" style="sketch=0;outlineConnect=0;fontColor=#232F3E;gradientColor=none;fillColor=#01A88D;strokeColor=none;dashed=0;verticalLabelPosition=bottom;verticalAlign=top;align=center;html=1;fontSize=12;fontStyle=0;aspect=fixed;shape=mxgraph.aws4.transfer_for_sftp_resource;" vertex="1" parent="1">
          <mxGeometry x="412" y="341.5" width="76" height="78" as="geometry" />
        </mxCell>
        <mxCell id="CR2SDrkhxNH643ZOb_z3-4" value="AWS Transfer for FTPS" style="sketch=0;outlineConnect=0;fontColor=#232F3E;gradientColor=none;fillColor=#01A88D;strokeColor=none;dashed=0;verticalLabelPosition=bottom;verticalAlign=top;align=center;html=1;fontSize=12;fontStyle=0;aspect=fixed;shape=mxgraph.aws4.transfer_for_ftps_resource;" vertex="1" parent="1">
          <mxGeometry x="412" y="451.5" width="76" height="78" as="geometry" />
        </mxCell>
        <mxCell id="CR2SDrkhxNH643ZOb_z3-5" value="AWS Transfer for FTP&lt;div&gt;(only within VPC)&lt;/div&gt;" style="sketch=0;outlineConnect=0;fontColor=#232F3E;gradientColor=none;fillColor=#01A88D;strokeColor=none;dashed=0;verticalLabelPosition=bottom;verticalAlign=top;align=center;html=1;fontSize=12;fontStyle=0;aspect=fixed;shape=mxgraph.aws4.transfer_for_ftp_resource;" vertex="1" parent="1">
          <mxGeometry x="412" y="561.5" width="76" height="78" as="geometry" />
        </mxCell>
        <mxCell id="CR2SDrkhxNH643ZOb_z3-6" value="Amazon S3" style="sketch=0;points=[[0,0,0],[0.25,0,0],[0.5,0,0],[0.75,0,0],[1,0,0],[0,1,0],[0.25,1,0],[0.5,1,0],[0.75,1,0],[1,1,0],[0,0.25,0],[0,0.5,0],[0,0.75,0],[1,0.25,0],[1,0.5,0],[1,0.75,0]];outlineConnect=0;fontColor=#232F3E;fillColor=#7AA116;strokeColor=#ffffff;dashed=0;verticalLabelPosition=bottom;verticalAlign=top;align=center;html=1;fontSize=12;fontStyle=0;aspect=fixed;shape=mxgraph.aws4.resourceIcon;resIcon=mxgraph.aws4.s3;" vertex="1" parent="1">
          <mxGeometry x="730" y="605.5" width="78" height="78" as="geometry" />
        </mxCell>
        <mxCell id="CR2SDrkhxNH643ZOb_z3-7" value="Amazon EFS" style="sketch=0;points=[[0,0,0],[0.25,0,0],[0.5,0,0],[0.75,0,0],[1,0,0],[0,1,0],[0.25,1,0],[0.5,1,0],[0.75,1,0],[1,1,0],[0,0.25,0],[0,0.5,0],[0,0.75,0],[1,0.25,0],[1,0.5,0],[1,0.75,0]];outlineConnect=0;fontColor=#232F3E;fillColor=#7AA116;strokeColor=#ffffff;dashed=0;verticalLabelPosition=bottom;verticalAlign=top;align=center;html=1;fontSize=12;fontStyle=0;aspect=fixed;shape=mxgraph.aws4.resourceIcon;resIcon=mxgraph.aws4.elastic_file_system;" vertex="1" parent="1">
          <mxGeometry x="730" y="314.5" width="78" height="78" as="geometry" />
        </mxCell>
        <mxCell id="CR2SDrkhxNH643ZOb_z3-8" value="IAM Role" style="sketch=0;outlineConnect=0;fontColor=#232F3E;gradientColor=none;fillColor=#DD344C;strokeColor=none;dashed=0;verticalLabelPosition=bottom;verticalAlign=top;align=center;html=1;fontSize=12;fontStyle=0;aspect=fixed;pointerEvents=1;shape=mxgraph.aws4.role;" vertex="1" parent="1">
          <mxGeometry x="580" y="477" width="78" height="44" as="geometry" />
        </mxCell>
        <mxCell id="CR2SDrkhxNH643ZOb_z3-20" style="edgeStyle=orthogonalEdgeStyle;rounded=0;orthogonalLoop=1;jettySize=auto;html=1;entryX=0;entryY=0.25;entryDx=0;entryDy=0;" edge="1" parent="1" source="CR2SDrkhxNH643ZOb_z3-10" target="CR2SDrkhxNH643ZOb_z3-9">
          <mxGeometry relative="1" as="geometry" />
        </mxCell>
        <mxCell id="CR2SDrkhxNH643ZOb_z3-10" value="" style="sketch=0;outlineConnect=0;fontColor=#232F3E;gradientColor=none;fillColor=#232F3D;strokeColor=none;dashed=0;verticalLabelPosition=bottom;verticalAlign=top;align=center;html=1;fontSize=12;fontStyle=0;aspect=fixed;pointerEvents=1;shape=mxgraph.aws4.authenticated_user;" vertex="1" parent="1">
          <mxGeometry x="60" y="368" width="78" height="78" as="geometry" />
        </mxCell>
        <mxCell id="CR2SDrkhxNH643ZOb_z3-15" style="edgeStyle=orthogonalEdgeStyle;rounded=0;orthogonalLoop=1;jettySize=auto;html=1;entryX=0;entryY=0.5;entryDx=0;entryDy=0;entryPerimeter=0;" edge="1" parent="1" source="CR2SDrkhxNH643ZOb_z3-8" target="CR2SDrkhxNH643ZOb_z3-7">
          <mxGeometry relative="1" as="geometry" />
        </mxCell>
        <mxCell id="CR2SDrkhxNH643ZOb_z3-16" style="edgeStyle=orthogonalEdgeStyle;rounded=0;orthogonalLoop=1;jettySize=auto;html=1;entryX=0;entryY=0.5;entryDx=0;entryDy=0;entryPerimeter=0;" edge="1" parent="1" source="CR2SDrkhxNH643ZOb_z3-8" target="CR2SDrkhxNH643ZOb_z3-6">
          <mxGeometry relative="1" as="geometry" />
        </mxCell>
      </root>
    </mxGraphModel>
  </diagram>
</mxfile>
